<svg width="24" height="24" viewBox="0 0 24 24" fill="none" xmlns="http://www.w3.org/2000/svg">
  <path d="M3 7C3 5.89543 3.89543 5 5 5H11C12.1046 5 13 5.89543 13 7V12C13 13.1046 12.1046 14 11 14H8L5 17V14H5C3.89543 14 3 13.1046 3 12V7Z" stroke="#000" stroke-width="2" stroke-linecap="round" stroke-linejoin="round"/>
  <path d="M11 9H19C20.1046 9 21 9.89543 21 11V16C21 17.1046 20.1046 18 19 18H16L13 21V18H13C11.8954 18 11 17.1046 11 16V9Z" stroke="#000" stroke-width="2" stroke-linecap="round" stroke-linejoin="round"/>
  <circle cx="8" cy="10" r="1.5" fill="#FFD100"/>
  <circle cx="17" cy="12" r="1.5" fill="#FFD100"/>
</svg>
